<svg width="324" height="394" viewBox="0 0 324 394" fill="none" xmlns="http://www.w3.org/2000/svg">
<path fill-rule="evenodd" clip-rule="evenodd" d="M157.569 358.532C159.005 357.294 160.498 356.009 162.015 354.608C165.672 357.932 169.141 360.993 172.528 363.983C175.145 366.293 177.713 368.559 180.282 370.871C187.942 377.824 196.781 380.888 207.152 379.474C208.574 379.262 210.013 378.988 211.453 378.713C215.618 377.919 219.797 377.123 223.65 377.824C229.543 378.884 236.967 381.123 240.267 385.484C247.809 395.501 253.466 397.033 260.302 386.309C262.445 382.917 265.015 379.733 267.577 376.56C274.448 368.048 281.26 359.609 279.629 347.419C282.862 347.132 285.996 346.988 289.045 346.848C294.776 346.584 300.207 346.334 305.438 345.18C321.347 341.762 328.183 322.553 318.755 308.411C318.511 308.898 318.267 309.345 318.032 309.777C317.698 310.389 317.381 310.971 317.105 311.593C310.505 324.792 306.027 325.381 294.831 315.364C288.035 309.287 281.095 303.427 274.149 297.564C268.569 292.853 262.986 288.14 257.473 283.309C250.896 277.657 244.588 271.646 238.313 265.667C237.393 264.79 236.473 263.914 235.554 263.039C234.021 261.389 232.725 259.504 231.664 257.501C231.514 257.35 231.75 256.957 232.094 256.384C232.287 256.063 232.514 255.685 232.725 255.262L236.732 260.565C238.853 255.733 240.504 251.961 241.918 248.544L260.184 245.951L248.517 236.523L249.695 234.284L271.144 239.587C270.04 236.483 268.976 233.661 267.788 230.508C266.946 228.274 266.042 225.874 265.015 223.089L281.868 232.988C283.731 223.673 278.97 216.804 274.788 210.769C274.472 210.315 274.16 209.864 273.855 209.418L290.118 195.984C268.551 191.624 261.599 185.378 263.366 173.475L276.448 171.589L267.137 147.666L289.882 141.537L280.808 131.874L286.818 123.624C284.764 122.479 282.405 122.061 280.124 121.658C275.599 120.857 271.377 120.111 270.437 113.843L288.35 109.6L273.266 92.8653L289.882 80.4915L280.454 72.4777C282.294 69.827 284.034 67.2756 285.822 64.6526C287.93 61.5613 290.106 58.3706 292.593 54.8005L277.037 58.2179C278.339 55.7858 279.708 53.4663 281.046 51.1986C286.126 42.5882 290.766 34.7248 289.647 24.2774C288.402 25.1071 287.242 25.9127 286.128 26.6863C283.76 28.3302 281.6 29.8303 279.276 31.1127C277.154 32.2908 274.209 33.823 272.205 33.2338C268.868 32.3601 265.746 30.9506 262.476 29.4748C260.896 28.7615 259.281 28.0327 257.592 27.3415C256.766 23.2173 255.824 18.0317 254.645 11.1965L241.917 27.106L228.129 21.0958C228.431 19.6224 228.721 18.1853 228.995 16.8273C229.576 13.949 230.085 11.4258 230.486 9.66425L194.189 12.0212V0L160.248 11.1957L128.546 0.117926V11.9029L91.1881 8.2492L93.8988 21.0947C93.154 21.4849 92.3773 21.875 91.5879 22.2715C89.7536 23.1927 87.8507 24.1485 86.1205 25.2197C81.9955 27.8124 79.049 27.3411 76.6925 22.7444C75.5277 20.4924 74.0047 18.4453 72.1574 15.9622C71.2011 14.6768 70.1579 13.2746 69.0325 11.6667C68.574 13.4168 68.1008 14.946 67.6703 16.3374C66.883 18.8815 66.2382 20.9653 66.086 23.0982C65.7326 27.93 63.6115 29.1084 59.0153 29.1084C57.0943 29.1084 55.1736 29.9235 52.8103 30.9264C51.6932 31.4005 50.4772 31.9165 49.1155 32.4083L32.6168 23.4516C32.1777 33.288 36.5163 40.7028 40.9505 48.2809C42.4664 50.8716 43.9935 53.4815 45.3447 56.2137L31.0845 54.5639L30.024 56.0961L42.5169 73.1834L33.6781 81.6688C36.8603 84.1108 39.9031 86.4135 43.1859 88.8978C45.1308 90.3697 47.1599 91.9053 49.3521 93.5713L34.2676 109.481L52.0632 114.195C50.1575 119.332 45.8053 120.275 41.341 121.242C39.4553 121.65 37.5496 122.063 35.7999 122.798C38.0389 125.861 40.0424 128.572 42.2814 131.518L32.9709 142.36L55.4799 148.017L51.1198 154.381C55.5402 160.173 52.5674 163.402 49.7238 166.491C48.1704 168.179 46.6555 169.824 46.4056 171.823C46.5786 171.854 46.7537 171.886 46.9303 171.918C48.0776 172.124 49.2896 172.342 50.4127 172.648C51.1243 172.904 51.9803 173.174 52.8694 173.454C55.6615 174.335 58.7802 175.318 58.7802 176.301C58.8981 180.426 57.8372 185.258 55.4807 188.44C53.5633 190.996 49.8173 192.301 46.4169 193.486C46.055 193.612 45.697 193.736 45.3455 193.861C43.169 194.638 40.8385 195.005 38.3203 195.402C37.021 195.607 35.6716 195.819 34.2676 196.1C35.5636 197.867 36.9783 199.4 38.5102 200.932C42.0411 203.875 45.6896 206.582 49.3383 209.289L49.3521 209.299C41.2201 221.909 39.6882 228.037 43.2236 234.401L56.7767 224.973C56.5121 225.86 56.2578 226.713 56.0121 227.536C54.3978 232.946 53.1569 237.105 51.8274 241.708L72.3332 234.872L73.3937 237.583L62.6697 243.475L61.7267 245.361C72.0977 247.718 82.3504 250.546 87.6535 260.564L88.5965 262.213C87.3857 263.359 86.1657 264.541 84.9292 265.738C81.7126 268.854 78.3832 272.08 74.808 275.059C69.1494 279.833 63.4025 284.519 57.6555 289.205C51.9121 293.888 46.1688 298.571 40.5137 303.343C37.9951 305.466 35.6006 307.735 33.2089 310.001C29.8933 313.142 26.5829 316.278 22.9544 319.017C14.8224 325.145 11.1691 323.731 7.27994 314.421C6.66985 313.048 6.10883 311.675 5.46952 310.11C5.12108 309.257 4.74937 308.347 4.33379 307.35C-0.734177 316.542 -1.79471 325.145 3.50835 333.631C12.8185 348.715 27.0782 348.833 41.9272 345.769C42.1465 346.098 42.3657 346.351 42.5494 346.562C42.7606 346.805 42.9247 346.994 42.9878 347.183C43.2233 348.066 43.3998 348.979 43.5764 349.892C43.7533 350.806 43.9302 351.72 44.1662 352.604C46.9948 365.803 53.4764 378.06 63.0223 387.606C70.9178 395.384 74.571 395.148 82.3493 387.37C83.174 386.545 84.117 385.838 85.06 385.249C92.249 379.828 100.145 377.707 109.219 379.474C125.129 382.656 139.035 379.356 149.759 366.039C151.969 363.355 154.655 361.042 157.569 358.532ZM217.652 160.314C217.688 160.34 217.723 160.366 217.758 160.392C213.751 152.496 207.977 150.493 195.367 152.614C205.502 148.136 215.872 149.904 226.243 152.025C227.422 152.615 228.365 153.675 228.482 154.971C227.539 165.696 226.361 176.42 218.347 184.552C217.134 185.847 215.198 186.53 213.265 187.212C212.565 187.46 211.865 187.707 211.2 187.983C219.069 181.671 224.662 174.407 220.468 163.574C220.1 162.764 219.41 162.092 218.714 161.414C218.346 161.056 217.977 160.697 217.652 160.314ZM217.545 160.235C217.537 160.209 217.529 160.183 217.522 160.156C217.564 160.21 217.608 160.262 217.652 160.314C217.616 160.288 217.581 160.262 217.545 160.235ZM217.545 160.235C221.169 172.794 219.627 179.376 211.983 184.08C205.856 188.087 197.724 187.38 192.185 182.43C185.468 176.301 184.878 165.931 191.007 159.213C196.31 152.968 205.502 151.789 212.337 156.385C213.536 157.21 214.688 158.083 215.823 158.942C216.4 159.379 216.973 159.813 217.545 160.235ZM210.305 188.25L210.687 188.205C210.855 188.129 211.027 188.055 211.2 187.983C211.108 188.057 211.015 188.13 210.923 188.204C210.715 188.22 210.51 188.235 210.305 188.25ZM210.305 188.25L190.653 190.562C201.141 193.979 210.334 193.272 220.822 188.087L215.284 195.276L227.422 196.337C226.135 198.107 225.012 199.876 223.938 201.571C221.863 204.842 219.966 207.834 217.405 210.007C179.928 242.416 140.567 238.881 103.562 208.829C101.912 207.533 100.616 205.883 99.6735 203.997C92.3666 186.909 87.5348 168.996 85.06 150.729L87.181 149.904C87.5556 150.878 87.9659 151.828 88.3741 152.773C89.2501 154.802 90.1163 156.808 90.5985 158.979C91.0482 161.059 91.203 163.165 91.3569 165.26C91.5257 167.557 91.6935 169.841 92.2483 172.06C96.4908 189.619 112.518 197.987 131.492 191.623C128.928 191.387 126.335 191.344 123.792 191.301C114.879 191.15 106.575 191.01 102.266 182.666C99.2187 176.733 97.5902 170.035 95.8211 162.76C94.99 159.342 94.128 155.797 93.0733 152.143L122.771 152.141C121.584 152.525 120.211 152.816 118.771 153.121C115.35 153.846 111.553 154.651 108.982 156.973C105.329 160.273 102.854 166.165 102.147 171.233C100.968 180.19 108.51 188.321 117.467 189.736C128.545 191.504 136.087 185.021 139.859 169.937C140.332 170.883 140.778 171.789 141.225 172.695C142.114 174.5 143.003 176.304 144.101 178.422C146.34 158.506 135.027 144.364 116.407 143.892C109.453 143.892 102.618 144.482 95.7829 145.896C86.8262 147.428 83.5266 145.071 84.4696 135.879C84.836 132.435 85.5667 129.036 86.2938 125.655C86.7361 123.598 87.177 121.548 87.5337 119.498C87.9242 117.155 88.1077 114.76 88.2899 112.382C88.3826 111.172 88.475 109.966 88.5942 108.773H90.7157C92.0795 110.403 93.4338 112.042 94.7894 113.683C98.2368 117.855 101.692 122.037 105.329 126.098C106.861 127.983 108.982 129.986 111.221 130.576C124.421 134.229 136.324 141.653 145.516 151.906C146.216 152.373 146.917 152.724 147.618 153.075L147.637 153.084C146.573 138.18 137.857 128.362 128.905 118.277C122.991 111.615 116.974 104.837 112.99 96.3987C111.222 103.47 110.044 108.302 108.629 114.312L88.2416 103.352C91.9929 101.178 95.4627 98.7438 98.8619 96.3589C106.889 90.7272 114.522 85.3718 124.539 84.378C130.314 83.6712 135.97 82.7282 141.627 81.5497C147.756 80.1354 153.766 79.6645 159.54 83.082C160.601 83.5536 161.897 83.5536 162.958 83.082C168.95 78.8882 175.252 79.9161 181.459 80.9285C183.798 81.3099 186.123 81.6891 188.413 81.786C192.262 81.9818 196.002 83.2606 199.754 84.5434C202.781 85.5781 205.815 86.6155 208.919 87.089C215.283 88.1499 219.29 91.3315 223.061 96.1633C224.477 97.8934 226.47 99.1512 228.934 100.707C230.164 101.483 231.51 102.333 232.961 103.352L213.987 114.194C212.977 109.904 212.028 106.154 211.095 102.473C210.721 100.997 210.351 99.533 209.98 98.0493C184.288 125.626 176.157 138.354 175.686 152.731C177.686 150.614 179.92 148.731 182.155 146.849L182.167 146.839C183.925 145.615 185.657 144.299 187.393 142.98C192.177 139.347 196.99 135.692 202.437 133.876C213.162 130.34 220.35 123.859 226.125 114.902C227.14 113.294 228.398 111.809 229.812 110.139C230.368 109.483 230.947 108.798 231.546 108.067C233.549 110.659 235.199 112.781 236.024 113.841C235.834 114.904 235.62 115.844 235.425 116.702C235.014 118.507 234.686 119.945 234.846 121.383C235.136 124.292 235.6 127.201 236.065 130.124C236.542 133.122 237.022 136.135 237.321 139.179C237.91 145.778 236.142 146.721 229.661 145.778C228.223 145.549 226.778 145.301 225.328 145.053C218.578 143.896 211.724 142.721 205.03 143.303C187.235 144.835 178.397 156.031 178.986 175.476C179.868 174.123 180.604 172.946 181.34 171.769C182.077 170.589 182.815 169.409 183.7 168.052C184.053 170.762 184.643 173.473 185.349 176.066C188.72 185.945 195.645 189.29 210.305 188.25ZM148.934 53.5034C156.123 59.3957 159.07 68.1162 158.952 78.6051L122.89 63.9919L122.3 65.1704L141.981 78.0159L112.284 78.0151L119.355 81.315L99.4381 89.5646C98.3068 94.7953 94.6742 96.8885 91.0579 98.9724C88.6451 100.363 86.2396 101.749 84.589 104.06L87.8886 107.006C86.8501 108.668 85.8116 110.352 84.8336 111.939C83.5918 113.953 82.4475 115.809 81.5246 117.259C81.8503 118.195 82.2321 119.033 82.5779 119.792C83.2336 121.23 83.7597 122.384 83.5281 123.388C78.234 147.96 85.809 170.162 93.4076 192.433C94.7739 196.438 96.141 200.445 97.4341 204.468C98.1782 206.7 99.4438 208.757 100.703 210.804C101.238 211.675 101.773 212.545 102.266 213.425L100.145 214.721L95.3131 206.589L89.067 210.949C89.2081 208.337 89.3493 206.105 89.4905 203.874C89.585 202.381 89.6794 200.889 89.7738 199.282L81.0533 200.697V151.79L57.3655 155.207L68.7971 136.469L42.6344 126.805L42.5169 123.977C56.6165 125.289 62.3024 116.261 68.2238 106.859C68.6871 106.123 69.1518 105.386 69.6221 104.65C71.2611 102.11 74.2102 100.368 77.0832 98.6699C78.3423 97.926 79.5867 97.1906 80.6999 96.4006L65.4971 84.3798C66.7759 84.3798 67.8253 84.4053 68.7165 84.427C70.5362 84.4712 71.6967 84.4994 72.8041 84.2619C73.7846 84.0589 74.9204 84.2052 76.0666 84.3529C78.9154 84.7199 81.8289 85.0952 82.5851 80.137C82.6648 79.6593 84.3058 79.4507 85.8341 79.2565C86.5671 79.1634 87.2741 79.0735 87.7707 78.9589L77.3996 68.3524L78.1068 66.7026H103.209L90.1275 51.0282L115.701 51.0289C114.499 46.286 113.399 41.7467 112.274 37.1015C111.302 33.09 110.311 28.9994 109.219 24.6304C113.088 27.3893 116.871 30.0372 120.572 32.627C130.623 39.6617 140.062 46.2675 148.934 53.5034ZM231.62 98.6481C227.725 96.538 223.859 94.444 223.651 88.9761L203.617 80.6086L211.041 77.4266H182.05L199.138 65.5253L198.667 64.5823L164.608 78.7242C165.316 65.9966 170.383 56.3327 179.811 49.2616C190.182 41.2483 201.259 34.0592 212.691 27.5773C211.148 32.5725 209.652 37.5676 208.086 42.7911C207.14 45.9477 206.169 49.1877 205.148 52.5615L232.372 51.3831C228.483 56.3327 225.183 60.5752 221.176 65.8783L243.685 67.646L233.432 79.5485L255.116 85.5587L239.678 98.2862C249.786 96.5432 253.594 102.819 257.539 109.32L257.709 109.6C263.013 118.202 270.908 123.034 280.69 125.156L281.161 127.277L255.824 136.705L264.426 152.968C258.769 155.326 250.049 154.265 243.214 150.14C242.153 166.521 241.092 182.902 240.032 200.226L230.604 196.219L234.611 189.148L221.411 192.684C234.257 179.484 238.853 164.4 240.385 148.372C240.824 143.616 240.445 138.723 240.067 133.835C239.836 130.851 239.605 127.869 239.56 124.92C239.56 123.592 240.086 122.207 240.603 120.845C240.82 120.272 241.036 119.704 241.21 119.145L243.096 119.381C242.789 118.828 242.48 118.273 242.17 117.717C240.1 114.002 237.988 110.21 236.143 106.418C236.064 106.261 236.825 105.683 237.585 105.107C237.964 104.819 238.343 104.532 238.618 104.296C237.11 101.622 234.358 100.131 231.62 98.6481ZM191.25 37.3513C179.701 45.1509 168.041 53.0261 161.544 67.2918C157.419 55.3886 149.641 48.4354 140.448 42.5443C132.988 37.8708 125.869 32.6841 118.101 27.0239C114.703 24.548 111.18 21.9815 107.451 19.3278C108.238 25.553 108.938 31.3437 109.631 37.0694C110.079 40.7738 110.523 44.4508 110.986 48.2007C110.201 47.9361 109.413 47.6742 108.623 47.4116C98.8532 44.1651 88.7758 40.8163 80.8167 31.1127L100.733 22.2739C98.966 19.2095 97.1983 15.9099 95.3123 12.3742L136.795 15.5562L131.964 6.12813C135.212 7.07118 138.429 7.62083 141.499 8.14526C148.786 9.39034 155.242 10.4932 159.305 16.3809L188.531 5.30306L190.064 7.6596L185.114 14.9666L224.828 14.9658L222.707 21.6835L240.384 30.051C235.35 38.5767 227.743 41.7319 220.26 44.8354C216.882 46.2364 213.53 47.627 210.451 49.4963C212.219 39.7149 213.869 30.5227 215.518 21.2126L212.69 19.9166C206.645 26.9534 198.972 32.1354 191.25 37.3513ZM257.945 337.402L246.631 358.261C246.38 357.4 246.008 356.505 245.64 355.618C244.798 353.593 243.972 351.605 244.627 350.13C248.045 340.23 244.274 332.924 236.614 327.856C229.286 323.006 221.235 319.058 213.252 315.145C212.12 314.59 210.989 314.035 209.862 313.479C202.791 310.061 202.909 308.058 207.505 301.812C210.349 297.83 212.241 293.175 214.108 288.582C214.948 286.515 215.783 284.46 216.698 282.485C220.686 283.371 224.783 284.198 228.941 285.038C239.154 287.1 249.73 289.235 259.948 292.502C266.901 294.741 273.03 300.869 278.451 306.29C280.336 308.176 280.454 315.247 278.686 316.543C276.211 318.546 270.554 318.782 267.726 317.25C264.152 315.252 261.421 311.566 258.865 308.116C258.556 307.699 258.25 307.286 257.945 306.879C256.652 305.182 255.747 303.153 254.66 300.715C254.162 299.598 253.625 298.394 252.995 297.098C246.867 313.243 249.342 326.678 257.945 337.402ZM97.0766 284.969C100.634 284.172 104.207 283.371 107.805 282.602C107.872 283.282 107.932 283.974 107.993 284.674C108.68 292.603 109.466 301.663 121.594 306.644C119.95 307.349 118.579 307.91 117.399 308.394C115.026 309.365 113.425 310.021 111.93 310.887C109.47 312.319 106.978 313.71 104.485 315.101C97.5418 318.976 90.5968 322.852 84.3536 327.622C77.8713 332.689 75.6323 340.232 78.2251 348.952C78.6944 350.439 77.6051 352.341 76.3372 354.556C75.6956 355.676 75.0082 356.877 74.4539 358.144L62.3152 337.167C63.4168 335.162 64.7326 333.149 66.0739 331.097C71.9076 322.172 78.2238 312.508 69.5046 299.573C69.0468 300.559 68.6521 301.565 68.264 302.556C67.3531 304.88 66.4782 307.112 64.9079 308.765C61.2546 312.772 57.13 316.189 52.4158 318.782C50.4123 319.843 45.816 318.193 44.0483 316.189C42.5165 314.539 42.1631 309.825 43.4591 308.058C49.3518 299.926 55.7154 292.502 67.029 290.852C77.0458 289.458 86.9982 287.228 97.0766 284.969ZM135.735 361.326C129.018 366.865 121.712 368.043 113.462 365.45C113.426 363.989 113.458 362.491 113.492 360.988C113.674 352.675 113.861 344.195 102.384 340.702C108.041 328.681 117.94 321.846 129.254 316.896C130.844 316.18 132.917 316.699 135.003 317.22C136.008 317.472 137.016 317.724 137.974 317.839L158.716 320.667C153.412 335.988 148.228 350.719 135.735 361.326ZM164.137 321.61C186.057 313.479 209.863 321.021 221.176 339.052C211.984 343.53 209.863 351.897 210.216 361.207C210.334 365.332 208.566 366.393 204.913 366.393C194.895 366.275 186.41 362.504 181.225 354.136C176.724 346.802 172.871 339.054 169 331.269C167.398 328.047 165.793 324.819 164.137 321.61ZM130.238 301.749C128.38 302.198 126.369 302.685 124.186 303.344C123.264 302.729 122.124 302.144 120.941 301.536C118.042 300.049 114.888 298.43 114.05 295.919C112.237 291.385 112.404 285.903 112.565 280.653C112.592 279.762 112.619 278.877 112.636 278.005C112.636 276.945 115.818 275.766 117.704 275.177C122.827 273.777 127.977 272.43 133.131 271.083C143.154 268.463 153.192 265.839 163.076 262.803C169.546 260.872 171.822 264.638 174.054 268.33C174.546 269.144 175.036 269.954 175.568 270.699C178.761 275.032 175.113 277.269 172.098 279.118C171.997 279.18 171.896 279.241 171.797 279.302C171.177 279.684 170.557 280.065 169.936 280.448C159.818 286.676 149.59 292.973 139.153 298.747C136.623 300.204 133.695 300.913 130.238 301.749ZM109.337 275.766C96.2553 283.663 81.9955 286.844 66.086 288.259L95.7844 259.857L99.7914 261.742V249.84L116.644 256.321L117.705 254.553C116.526 252.903 115.466 251.254 114.64 249.486C114.261 248.465 113.724 247.466 113.186 246.468C111.551 243.43 109.917 240.395 112.755 236.758C116.879 231.455 127.604 228.037 132.553 229.687C136.914 231.219 138.092 233.695 137.031 238.173C133.26 253.965 123.361 267.517 109.337 275.766ZM204.795 254.554L205.384 256.086L222.472 250.547V263.51C226.857 259.783 229.406 262.275 232.206 265.013C232.417 265.219 232.629 265.426 232.843 265.632C238.009 270.798 243.311 275.83 248.899 281.134C250.704 282.847 252.539 284.589 254.41 286.373C224.475 290.026 190.064 264.571 185.586 236.876C184.878 232.987 186.175 231.219 189.71 230.513C197.488 228.863 204.677 230.748 210.098 236.405C211.63 238.055 212.102 241.944 211.277 244.183C210.276 246.853 208.566 249.227 206.859 251.598C206.154 252.577 205.449 253.556 204.795 254.554ZM77.6351 195.04L68.9146 206L82.9381 205.999C83.0327 206.827 83.1273 207.651 83.2215 208.472C84.0664 215.834 84.8829 222.949 85.413 230.158C85.413 232.751 85.1775 235.226 84.3524 237.701C81.7597 246.893 78.8136 248.189 69.5034 244.654L78.6953 233.812C78.2239 232.751 77.7526 231.808 77.281 230.865L56.4217 234.99L63.8463 220.966L44.2834 225.68L55.8325 208.003L41.4552 200.343L40.866 197.986C56.4225 198.576 61.961 189.383 63.4933 177.009L77.6351 195.04ZM239.014 211.904C239.272 209.928 239.538 207.89 239.796 205.765L254.057 206.236L246.161 194.569L258.535 179.249C259.318 180.44 260.081 181.719 260.853 183.014C262.754 186.201 264.707 189.478 267.138 191.741C269.551 193.987 272.787 195.47 276.347 197.102C277.829 197.781 279.367 198.486 280.926 199.283L266.784 207.297C270.319 211.893 273.737 216.489 277.037 221.085C277.481 221.752 277.646 222.604 277.825 223.527C277.93 224.072 278.04 224.641 278.215 225.21L258.77 221.321L265.369 233.342L244.156 230.867L242.978 232.634L249.695 243.948C242.625 246.776 240.15 245.951 238.382 238.998C237.439 234.991 237.085 230.985 237.439 226.86C237.696 221.978 238.326 217.159 239.014 211.904ZM158.541 329.569C159.671 326.83 160.815 324.058 162.015 321.257C162.719 323.228 163.371 325.22 164.02 327.204C165.544 331.865 167.055 336.486 169.204 340.702C172.975 347.773 176.981 355.08 182.638 360.619C186.718 364.698 193.086 366.816 198.913 368.754C199.146 368.832 199.378 368.909 199.609 368.986C202.519 369.936 205.519 370.527 208.534 371.121C211.501 371.706 214.482 372.293 217.404 373.228C206.327 379.475 190.888 377.117 181.342 368.515C177.807 365.45 174.507 362.268 171.325 358.851C169.551 356.934 167.904 354.847 166.103 352.562C164.913 351.054 163.657 349.46 162.251 347.773C161.852 348.247 161.453 348.72 161.056 349.193C145.719 367.418 131.29 384.563 105.33 376.293C110.515 371.579 116.525 369.575 124.068 368.986C136.088 368.044 144.22 359.912 149.523 349.659C152.903 343.236 155.678 336.511 158.541 329.569ZM152.823 298.158C169.912 280.716 188.885 275.413 211.512 279.656C211.151 281.465 210.858 283.291 210.562 285.142C210.086 288.113 209.6 291.146 208.801 294.269C207.505 299.219 203.852 302.401 198.667 302.047C188.072 301.375 177.477 300.402 166.412 299.386C161.968 298.978 157.449 298.563 152.823 298.158ZM275.583 347.331C276.214 348.354 276.84 349.369 277.508 350.248C276.821 352.216 276.312 354.043 275.843 355.727C275.104 358.378 274.464 360.676 273.383 362.622C268.316 370.636 263.013 378.414 257.238 385.956C254.763 389.256 250.874 393.263 246.16 390.081C241.446 386.899 242.978 381.949 244.392 377.471C245.057 375.413 245.693 373.336 246.329 371.255C247.953 365.952 249.583 360.63 251.699 355.552C253.585 351.19 255.824 346.477 259.359 343.53C262.541 341.291 266.666 340.584 270.437 341.645C272.587 342.472 274.099 344.924 275.583 347.331ZM63.6115 383.953C54.419 374.642 48.055 363.447 46.2873 348.126C46.5592 347.673 46.8311 347.058 47.1326 346.375C48.0077 344.393 49.1331 341.844 51.237 341.056C54.0656 339.995 59.369 340.938 61.1363 343.059C65.1434 347.891 67.854 353.783 70.4468 359.558C71.589 362.096 72.458 364.771 73.3296 367.454C74.0767 369.754 74.8256 372.059 75.7499 374.289C76.115 375.17 76.5546 376.074 76.9993 376.989C78.9943 381.093 81.0934 385.411 77.0463 388.784C72.0281 392.949 67.7837 388.407 64.5763 384.975C64.2435 384.618 63.9218 384.274 63.6115 383.953ZM158.936 260.299C159.103 260.618 159.274 260.945 159.423 261.271C157.728 261.787 156.08 262.36 154.452 262.927C150.873 264.172 147.395 265.382 143.75 265.867C141.157 266.104 137.739 263.628 135.736 261.389C134.439 259.975 134.321 256.558 134.91 254.436C136.119 250.379 137.644 246.448 139.3 242.18C139.905 240.622 140.527 239.019 141.157 237.348C154.002 251.608 167.555 253.965 181.579 236.759C183.464 242.887 185.114 248.073 187 253.965C185.904 253.965 184.913 253.913 183.999 253.865C182.161 253.769 180.639 253.689 179.222 254.083C177.926 254.436 176.04 256.086 176.04 257.382C176.04 258.678 177.572 260.211 178.75 261.271C179.811 261.743 180.989 261.979 182.167 261.625C193.009 259.386 197.488 267.282 201.966 275.178C201.435 274.799 200.856 274.456 200.279 274.115C199.061 273.395 197.854 272.682 197.134 271.642C192.773 265.278 186.881 262.803 179.339 262.803C173.682 262.803 169.204 260.8 166.965 254.79C166.57 253.683 164.953 253.106 163.327 252.526C162.531 252.242 161.731 251.956 161.072 251.608C160.012 253.611 159.07 255.733 158.244 257.854C157.979 258.471 158.441 259.352 158.936 260.299ZM88.7133 326.677C102.737 313.95 116.762 309.472 125.482 315.364C124.001 316.245 122.548 317.071 121.117 317.884C118.334 319.466 115.636 320.999 112.99 322.789C112.386 323.192 111.743 323.594 111.089 324.005C108.299 325.754 105.297 327.636 104.152 330.213C101.528 336.311 96.5145 339.124 91.4997 341.938C88.1802 343.8 84.8601 345.663 82.2318 348.48C78.1068 340.82 80.1103 334.573 88.7133 326.677ZM197.37 315.365V313.479C198.784 313.754 200.236 313.937 201.689 314.12C204.597 314.486 207.505 314.853 210.098 315.953L210.342 316.061C221.223 320.858 232.192 325.693 239.678 335.87C242.625 339.995 243.686 344.12 241.21 348.48L197.37 315.365ZM136.678 170.881C136.678 179.955 129.372 187.38 120.297 187.38C111.223 187.38 103.916 180.191 103.798 170.999C103.798 161.924 111.105 154.5 120.179 154.5C129.254 154.5 136.678 161.807 136.678 170.881ZM244.153 173.047C244.537 166.992 244.921 160.938 245.335 154.736C253.349 155.914 256.295 159.921 257.12 166.168C258.181 175.949 252.759 186.32 242.978 191.269C243.389 185.098 243.771 179.072 244.153 173.047ZM66.7935 165.931C67.7361 160.038 70.2113 155.442 78.3426 155.207V188.911C71.1536 185.494 65.4971 174.181 66.7935 165.931ZM171.578 311.155C171.835 312.796 172.101 314.497 172.504 316.072V316.189H152.235C152.748 315.235 153.342 314.316 153.908 313.438C155.162 311.495 156.286 309.754 156.123 308.293C155.962 306.843 154.478 305.502 152.99 304.159C152.303 303.538 151.614 302.916 151.056 302.283C151.291 301.93 151.497 301.577 151.703 301.224C151.909 300.87 152.116 300.516 152.352 300.162C153.996 300.407 155.702 300.537 157.406 300.668C161.443 300.977 165.466 301.285 168.615 303.108C170.483 304.164 171.008 307.515 171.578 311.155ZM140.197 301.703C142.484 301.089 144.869 300.448 146.577 298.865V315.953C144.922 315.267 143.005 315.259 141.146 315.25C137.579 315.234 134.23 315.219 133.378 310.415C132.159 303.862 136.014 302.827 140.197 301.703ZM215.166 234.166L198.902 226.27L214.105 216.37C214.31 220.129 214.515 223.451 214.72 226.774C214.869 229.183 215.017 231.591 215.166 234.166ZM181.954 315.356C180.142 315.338 178.253 315.32 176.629 315.954V303.108C178.26 304.387 180.517 304.412 182.667 304.436C186.266 304.476 189.564 304.513 189.121 310.415C188.808 315.423 185.534 315.391 181.954 315.356ZM123.597 226.388L109.337 233.577C108.983 227.331 108.63 222.263 108.159 216.017C112.178 218.668 115.64 221.01 119.309 223.491C120.695 224.428 122.11 225.386 123.597 226.388ZM193.835 273.881C189.238 268.343 184.524 265.161 177.571 265.867C180.4 277.771 180.636 278.006 193.835 273.881ZM269.73 169.585C265.841 156.857 265.487 156.622 258.298 158.271C260.184 170.292 260.184 170.292 269.73 169.585ZM54.8224 164.219C56.4583 160.497 58.0417 156.895 64.4362 157.918C63.847 168.76 63.6115 168.995 52.6513 168.289C53.5639 167.083 54.197 165.642 54.8224 164.219ZM224.24 215.192C220.351 211.186 220.351 211.186 229.779 199.636C230.401 202.048 230.87 204.1 231.388 206.369C231.654 207.537 231.934 208.763 232.254 210.124L227.186 206.825C226.131 209.758 225.192 212.457 224.253 215.155L224.24 215.192ZM123.243 269.521L130.668 261.389L137.149 267.4L124.304 270.817C124.127 270.582 123.951 270.377 123.775 270.171C123.598 269.964 123.421 269.757 123.243 269.521ZM194.424 313.478L192.067 311.122C192.378 310.707 192.684 310.275 192.99 309.842C194.075 308.308 195.166 306.764 196.545 305.936C196.945 305.696 198.107 306.543 199.291 307.407C199.85 307.815 200.414 308.226 200.906 308.529L194.424 313.478ZM121.711 308.058L129.725 304.404V313.832L121.711 308.058ZM168.615 243.476L178.397 234.52C167.672 235.698 167.672 235.698 168.615 243.476ZM184.878 198.458H136.796C138.563 215.074 150.348 229.688 161.426 229.452C173.8 229.099 184.996 214.367 184.878 198.458ZM140.213 201.286H184.407C178.951 207.548 172.815 206.816 167.237 206.151C165.467 205.94 163.752 205.736 162.133 205.764C160.295 205.794 158.382 206.002 156.445 206.214C150.683 206.842 144.71 207.494 139.86 203.525C139.919 203.167 139.979 202.779 140.039 202.391C140.097 202.013 140.155 201.635 140.213 201.286ZM213.751 171.117C213.987 164.871 209.038 159.567 202.791 159.332C196.781 159.45 191.832 164.163 191.36 170.173V170.527C191.36 176.538 196.074 181.369 202.084 181.487C208.566 181.723 213.516 177.363 213.751 171.234V171.117ZM205.553 169.231C206.172 169.881 206.888 170.634 207.741 171.352C206.807 171.84 205.999 172.355 205.283 172.812C203.921 173.68 202.893 174.335 201.966 174.181C201.22 174.181 200.474 173.072 199.728 171.964C199.414 171.497 199.099 171.03 198.785 170.646C199.158 170.335 199.53 169.983 199.906 169.629C200.953 168.641 202.017 167.637 203.145 167.464C203.802 167.39 204.548 168.175 205.553 169.231ZM109.808 170.999C110.044 164.871 115.229 160.039 121.358 160.275C127.603 160.392 131.964 164.988 131.964 171.589V171.706C131.964 177.716 127.014 182.548 121.004 182.548C114.994 182.43 110.044 177.716 109.808 171.588V170.999Z" fill="white"/>
</svg>
