<svg width="324" height="394" viewBox="0 0 324 394" fill="none" xmlns="http://www.w3.org/2000/svg">
<path fill-rule="evenodd" clip-rule="evenodd" d="M162.015 354.608C157.419 358.85 153.059 362.032 149.759 366.039C139.035 379.356 125.129 382.656 109.219 379.474C100.145 377.707 92.249 379.828 85.06 385.249C84.117 385.838 83.174 386.545 82.3493 387.37C74.571 395.148 70.9178 395.384 63.0223 387.606C53.4764 378.06 46.9948 365.803 44.1662 352.604C43.6946 350.837 43.4591 348.951 42.9878 347.183C42.8699 346.83 42.3986 346.476 41.9272 345.769C27.0782 348.833 12.8185 348.715 3.50835 333.631C-1.79471 325.145 -0.734178 316.542 4.33379 307.35C5.51187 310.178 6.33732 312.299 7.27994 314.421C11.1691 323.731 14.8224 325.145 22.9544 319.017C29.2004 314.303 34.5035 308.411 40.5137 303.343C51.8274 293.797 63.4944 284.605 74.808 275.059C79.7577 270.934 84.236 266.338 88.5965 262.213L87.6535 260.564C82.3504 250.546 72.0977 247.718 61.7267 245.361L62.6697 243.475L73.3937 237.583L72.3332 234.872L51.8274 241.708C53.3592 236.405 54.7735 231.69 56.7767 224.973L43.2236 234.401C39.6882 228.037 41.2201 221.909 49.3521 209.299C45.6988 206.589 42.0455 203.878 38.5102 200.932C36.9783 199.4 35.5636 197.867 34.2676 196.1C38.3926 195.275 42.0459 195.04 45.3455 193.861C48.9991 192.565 53.3592 191.268 55.4807 188.44C57.8372 185.258 58.8981 180.426 58.7802 176.301C58.7802 175.005 53.3592 173.709 50.4127 172.648C49.1167 172.294 47.7024 172.059 46.4056 171.823C47.1128 166.166 57.9551 163.338 51.1198 154.381L55.4799 148.017L32.9709 142.36L42.2814 131.518C40.0424 128.572 38.0389 125.861 35.7999 122.798C41.6922 120.323 49.3525 121.502 52.0632 114.195L34.2676 109.481L49.3521 93.5713C43.4599 89.0933 38.7456 85.5575 33.6781 81.6688L42.5169 73.1834L30.024 56.0961L31.0845 54.5639L45.3447 56.2137C40.0413 45.4896 32.0275 36.6508 32.6168 23.4516L49.1155 32.4083C53.3581 30.8761 56.1863 29.1084 59.0153 29.1084C63.6115 29.1084 65.7326 27.93 66.086 23.0982C66.3215 19.7987 67.7358 16.6167 69.0325 11.6667C72.332 16.3809 74.9248 19.3266 76.6925 22.7444C79.049 27.3411 81.9955 27.8124 86.1205 25.2197C88.5953 23.6874 91.4236 22.3914 93.8988 21.0947L91.1881 8.2492L128.546 11.9029V0.117926L160.248 11.1957L194.189 0V12.0212L230.486 9.66425C229.896 12.257 229.071 16.4995 228.129 21.0958L241.917 27.106L254.645 11.1965C255.824 18.0317 256.766 23.2173 257.592 27.3415C262.777 29.4629 267.255 31.9378 272.205 33.2338C274.209 33.823 277.154 32.2908 279.276 31.1127C282.693 29.2267 285.757 26.8702 289.647 24.2774C291.061 37.4763 283.283 46.5509 277.037 58.2179L292.593 54.8005C287.996 61.3999 284.461 66.703 280.454 72.4777L289.882 80.4915L273.266 92.8653L288.35 109.6L270.437 113.843C271.851 123.271 280.69 120.207 286.818 123.624L280.808 131.874L289.882 141.537L267.137 147.666L276.448 171.589L263.366 173.475C261.599 185.378 268.552 191.624 290.118 195.984L273.855 209.418C278.215 215.782 283.872 222.971 281.868 232.988L265.015 223.089C267.491 229.806 269.258 234.284 271.144 239.587L249.695 234.284L248.517 236.523L260.184 245.951L241.918 248.544C240.504 251.961 238.853 255.733 236.732 260.565L232.725 255.262C232.136 256.44 231.429 257.265 231.664 257.501C232.725 259.504 234.021 261.389 235.554 263.039C242.743 269.875 249.931 276.828 257.473 283.309C269.847 294.151 282.575 304.404 294.831 315.364C306.027 325.381 310.505 324.792 317.105 311.593C317.576 310.532 318.165 309.589 318.755 308.411C328.183 322.553 321.347 341.762 305.438 345.18C297.424 346.947 288.939 346.594 279.629 347.419C281.868 364.154 268.197 373.817 260.302 386.309C253.466 397.033 247.809 395.501 240.267 385.484C236.967 381.123 229.543 378.884 223.65 377.824C218.465 376.881 212.69 378.649 207.152 379.474C196.781 380.888 187.942 377.824 180.282 370.871C174.39 365.568 168.498 360.501 162.015 354.608V354.608ZM217.758 160.392C215.99 159.096 214.222 157.682 212.337 156.385C205.502 151.789 196.31 152.968 191.007 159.213C184.878 165.931 185.468 176.301 192.185 182.43C197.724 187.38 205.856 188.087 211.983 184.08C219.643 179.366 221.176 172.766 217.522 160.156C218.465 161.335 219.879 162.278 220.468 163.574C224.711 174.534 218.937 181.84 210.923 188.204C195.838 189.382 188.767 186.083 185.349 176.066C184.643 173.473 184.053 170.762 183.7 168.052C181.932 170.762 180.753 172.766 178.986 175.476C178.397 156.031 187.235 144.835 205.03 143.303C213.162 142.596 221.529 144.482 229.661 145.778C236.142 146.721 237.91 145.778 237.321 139.179C236.731 133.169 235.435 127.276 234.846 121.383C234.61 119.262 235.435 117.141 236.024 113.841C235.199 112.781 233.549 110.659 231.546 108.067C229.425 110.659 227.539 112.663 226.125 114.902C220.35 123.859 213.162 130.34 202.437 133.876C195.012 136.351 188.766 142.243 182.167 146.839C179.928 148.725 177.689 150.61 175.686 152.731C176.157 138.354 184.288 125.626 209.98 98.0493C211.276 103.235 212.573 108.184 213.987 114.194L232.961 103.352C228.6 100.288 225.183 98.756 223.061 96.1633C219.29 91.3315 215.283 88.1499 208.919 87.089C201.966 86.0285 195.366 82.1397 188.413 81.786C180.046 81.4322 171.208 77.308 162.958 83.082C161.897 83.5536 160.601 83.5536 159.541 83.082C153.766 79.6645 147.756 80.1354 141.627 81.5497C135.97 82.7282 130.314 83.6712 124.539 84.378C110.279 85.7926 100.851 96.0454 88.2416 103.352L108.629 114.312C110.044 108.302 111.222 103.47 112.99 96.3987C123.007 117.612 145.87 128.336 147.637 153.084C146.93 152.731 146.223 152.378 145.516 151.906C136.324 141.653 124.421 134.229 111.221 130.576C108.982 129.986 106.861 127.983 105.329 126.098C100.262 120.441 95.5478 114.548 90.7157 108.773H88.5942C88.2408 112.309 88.1229 115.962 87.5337 119.498C86.5907 124.919 85.0589 130.34 84.4696 135.879C83.5266 145.071 86.8262 147.428 95.7829 145.896C102.618 144.482 109.453 143.892 116.407 143.892C135.027 144.364 146.34 158.506 144.101 178.422C142.451 175.24 141.273 172.765 139.859 169.937C136.087 185.021 128.545 191.504 117.467 189.736C108.51 188.321 100.968 180.19 102.147 171.233C102.854 166.165 105.329 160.273 108.982 156.973C112.635 153.674 118.763 153.438 122.771 152.141L93.0733 152.143C96.3732 163.575 97.7875 173.945 102.266 182.666C107.804 193.391 119.943 190.562 131.492 191.623C112.518 197.987 96.4908 189.619 92.2483 172.06C91.1877 167.817 91.5415 163.339 90.5985 158.979C89.8917 155.797 88.3595 152.968 87.181 149.904L85.06 150.729C87.5348 168.996 92.3666 186.909 99.6735 203.997C100.616 205.883 101.912 207.533 103.562 208.829C140.567 238.881 179.928 242.416 217.405 210.007C221.294 206.707 223.651 201.522 227.422 196.337L215.284 195.276L220.822 188.087C210.334 193.272 201.141 193.979 190.653 190.562L210.687 188.205C213.28 187.027 216.58 186.438 218.347 184.552C226.361 176.42 227.539 165.696 228.482 154.971C228.365 153.675 227.422 152.615 226.243 152.025C215.872 149.904 205.502 148.136 195.367 152.614C207.977 150.493 213.751 152.496 217.758 160.392V160.392ZM158.952 78.6051C159.07 68.1162 156.123 59.3957 148.934 53.5034C136.796 43.6037 123.597 34.8832 109.219 24.6304C111.576 34.0585 113.462 42.1901 115.701 51.0289L90.1275 51.0282L103.209 66.7026H78.1068L77.3996 68.3524L87.7707 78.9589C86.2388 79.3126 82.7031 79.4302 82.5851 80.137C81.5246 87.0902 76.2216 83.5544 72.8041 84.2619C71.1543 84.6157 69.3867 84.3798 65.4971 84.3798L80.6999 96.4006C77.0466 98.9934 71.9794 100.997 69.6221 104.65C63.1406 114.785 57.7196 125.392 42.5169 123.977L42.6344 126.805L68.7971 136.469L57.3655 155.207L81.0533 151.79V200.697L89.7738 199.282C89.5383 203.289 89.3025 206.589 89.067 210.949L95.3131 206.589L100.145 214.721L102.266 213.425C100.616 210.478 98.4951 207.65 97.4341 204.468C88.9491 178.069 77.2821 152.378 83.5281 123.388C83.8819 121.855 82.4676 119.97 81.5246 117.259C83.1744 114.666 85.5317 110.778 87.8886 107.006L84.589 104.06C88.7136 98.2851 97.5521 98.2851 99.4381 89.5646L119.355 81.315L112.284 78.0151L141.981 78.0159L122.3 65.1704L122.89 63.9919L158.952 78.6051V78.6051ZM223.651 88.9761C224.004 98.2862 234.964 97.8149 238.618 104.296C237.793 105.003 236.025 106.182 236.143 106.418C238.264 110.778 240.739 115.138 243.096 119.381L241.21 119.145C240.621 121.031 239.56 123.034 239.56 124.92C239.678 132.698 241.092 140.712 240.385 148.372C238.853 164.4 234.257 179.484 221.411 192.684L234.611 189.148L230.604 196.219L240.032 200.226C241.092 182.902 242.153 166.521 243.214 150.14C250.049 154.265 258.769 155.326 264.426 152.968L255.824 136.705L281.161 127.277L280.69 125.156C270.908 123.034 263.013 118.202 257.709 109.6C253.702 103 249.931 96.5182 239.678 98.2862L255.116 85.5587L233.432 79.5485L243.685 67.646L221.176 65.8783C225.183 60.5752 228.483 56.3327 232.372 51.3831L205.148 52.5615C207.859 43.6048 210.216 35.5911 212.691 27.5773C201.259 34.0592 190.182 41.2483 179.811 49.2616C170.383 56.3327 165.316 65.9966 164.608 78.7242L198.667 64.5823L199.138 65.5253L182.05 77.4266H211.041L203.617 80.6086L223.651 88.9761V88.9761ZM161.544 67.2918C172.386 43.4861 197.606 37.4759 212.69 19.9166L215.518 21.2126C213.869 30.5227 212.219 39.7149 210.451 49.4963C220.35 43.4861 233.078 42.4256 240.384 30.051L222.707 21.6835L224.828 14.9658L185.114 14.9666L190.064 7.6596L188.531 5.30306L159.305 16.3809C153.53 8.01336 142.924 9.31012 131.964 6.12813L136.795 15.5562L95.3123 12.3742C97.1983 15.9099 98.966 19.2095 100.733 22.2739L80.8167 31.1127C89.4197 41.6013 100.497 44.6653 110.986 48.2007C109.808 38.6548 108.747 29.5805 107.451 19.3278C119.707 28.0483 129.724 35.8265 140.448 42.5443C149.641 48.4354 157.419 55.3886 161.544 67.2918V67.2918ZM246.631 358.261L257.945 337.402C249.342 326.678 246.867 313.243 252.995 297.098C254.999 301.222 256.059 304.404 257.945 306.879C260.773 310.65 263.719 315.01 267.726 317.25C270.554 318.782 276.211 318.546 278.686 316.543C280.454 315.247 280.336 308.176 278.451 306.29C273.03 300.869 266.901 294.741 259.948 292.502C245.571 287.906 230.486 285.549 216.698 282.485C213.751 288.849 211.63 296.038 207.505 301.812C202.909 308.058 202.791 310.061 209.862 313.479C218.937 317.957 228.247 322.318 236.614 327.856C244.274 332.924 248.045 340.23 244.627 350.13C243.685 352.251 245.806 355.433 246.631 358.261V358.261ZM107.805 282.602C94.0163 285.549 80.5816 288.966 67.029 290.852C55.7154 292.502 49.3518 299.926 43.4591 308.058C42.1631 309.825 42.5165 314.539 44.0483 316.189C45.816 318.193 50.4123 319.843 52.4158 318.782C57.13 316.189 61.2546 312.772 64.9079 308.765C67.1473 306.408 67.9724 302.872 69.5046 299.573C80.2286 315.482 68.2082 326.442 62.3152 337.167L74.4539 358.144C76.1036 354.373 78.9318 351.191 78.2251 348.952C75.6323 340.232 77.8713 332.689 84.3536 327.622C92.8386 321.14 102.62 316.308 111.93 310.887C114.169 309.591 116.644 308.765 121.594 306.644C108.394 301.222 108.63 290.969 107.805 282.602V282.602ZM113.462 365.45C121.712 368.043 129.018 366.865 135.735 361.325C148.228 350.719 153.412 335.988 158.716 320.667L137.974 317.839C135.028 317.485 131.611 315.835 129.254 316.896C117.94 321.846 108.041 328.681 102.384 340.702C115.936 344.827 113.226 355.905 113.462 365.45ZM221.176 339.052C209.863 321.021 186.057 313.479 164.137 321.61C169.794 332.57 174.861 343.766 181.225 354.136C186.41 362.504 194.895 366.275 204.913 366.393C208.566 366.393 210.334 365.332 210.216 361.207C209.863 351.897 211.984 343.53 221.176 339.052V339.052ZM124.186 303.344C130.432 301.458 135.264 300.987 139.153 298.747C150.23 292.619 161.072 285.902 171.797 279.302C174.861 277.416 178.868 275.177 175.568 270.699C172.622 266.575 170.972 260.446 163.076 262.803C148.109 267.4 132.789 271.053 117.704 275.177C115.818 275.766 112.636 276.945 112.636 278.005C112.518 284.016 111.929 290.615 114.05 295.919C115.229 299.454 121.004 301.222 124.186 303.344V303.344ZM66.086 288.259C81.9955 286.844 96.2553 283.663 109.337 275.766C123.361 267.517 133.26 253.965 137.031 238.173C138.092 233.695 136.914 231.219 132.553 229.687C127.604 228.037 116.879 231.455 112.755 236.758C108.984 241.59 113.109 245.361 114.64 249.486C115.466 251.254 116.526 252.903 117.705 254.553L116.644 256.321L99.7914 249.84V261.742L95.7844 259.857L66.086 288.259ZM205.384 256.086L204.795 254.554C207.034 251.137 209.863 247.955 211.277 244.183C212.102 241.944 211.63 238.055 210.098 236.405C204.677 230.748 197.488 228.863 189.71 230.513C186.175 231.219 184.878 232.987 185.586 236.876C190.064 264.571 224.475 290.026 254.41 286.373C246.75 279.066 239.678 272.467 232.843 265.632C229.779 262.685 227.186 259.503 222.472 263.51V250.547L205.384 256.086V256.086ZM68.9146 206L77.6351 195.04L63.4933 177.009C61.961 189.383 56.4225 198.576 40.866 197.986L41.4552 200.343L55.8325 208.003L44.2834 225.68L63.8463 220.966L56.4217 234.99L77.281 230.865C77.7526 231.808 78.2239 232.751 78.6953 233.812L69.5034 244.654C78.8136 248.189 81.7597 246.893 84.3524 237.701C85.1775 235.226 85.413 232.751 85.413 230.158C84.8238 222.145 83.8808 214.249 82.9381 205.999L68.9146 206V206ZM239.796 205.765C238.853 213.543 237.793 220.142 237.439 226.86C237.085 230.985 237.439 234.991 238.382 238.998C240.15 245.951 242.625 246.776 249.695 243.948L242.978 232.634L244.156 230.867L265.369 233.342L258.77 221.321L278.215 225.21C277.744 223.678 277.744 222.146 277.037 221.085C273.737 216.489 270.319 211.893 266.784 207.297L280.926 199.283C275.623 196.572 270.555 194.923 267.138 191.741C263.721 188.559 261.245 183.373 258.535 179.249L246.161 194.569L254.057 206.236L239.796 205.765V205.765ZM162.015 321.257C157.773 331.157 154.237 340.702 149.523 349.659C144.22 359.912 136.088 368.044 124.068 368.986C116.525 369.575 110.515 371.579 105.33 376.293C131.964 384.778 146.46 366.511 162.251 347.773C165.787 352.016 168.379 355.669 171.325 358.851C174.507 362.268 177.807 365.45 181.342 368.515C190.888 377.117 206.327 379.475 217.404 373.228C211.512 371.343 205.383 370.872 199.609 368.986C193.599 366.982 186.881 364.861 182.638 360.619C176.981 355.08 172.975 347.773 169.204 340.702C166.14 334.692 164.373 327.856 162.015 321.257V321.257ZM211.512 279.656C188.885 275.413 169.912 280.716 152.823 298.158C168.969 299.573 183.818 301.105 198.667 302.047C203.852 302.401 207.505 299.219 208.801 294.269C210.098 289.202 210.569 284.37 211.512 279.656V279.656ZM277.508 350.248C275.269 347.301 273.501 342.823 270.437 341.645C266.666 340.584 262.541 341.291 259.359 343.53C255.824 346.477 253.585 351.19 251.699 355.552C248.753 362.622 246.75 370.165 244.392 377.471C242.978 381.949 241.446 386.899 246.16 390.081C250.874 393.263 254.763 389.256 257.238 385.956C263.013 378.414 268.316 370.636 273.383 362.622C275.151 359.44 275.74 355.315 277.508 350.248V350.248ZM46.2873 348.126C48.055 363.447 54.419 374.642 63.6115 383.953C66.9111 387.37 71.5074 393.381 77.0463 388.784C81.9955 384.66 77.753 379.121 75.7499 374.289C73.7471 369.458 72.5679 364.272 70.4468 359.558C67.8541 353.783 65.1434 347.891 61.1363 343.059C59.369 340.938 54.0656 339.995 51.237 341.056C48.408 342.116 47.3482 346.359 46.2873 348.126V348.126ZM159.423 261.271C158.833 259.975 157.89 258.678 158.244 257.854C159.07 255.733 160.012 253.611 161.072 251.608C163.076 252.668 166.376 253.14 166.965 254.79C169.204 260.8 173.682 262.803 179.339 262.803C186.881 262.803 192.774 265.278 197.134 271.642C198.195 273.174 200.316 273.999 201.966 275.178C197.488 267.282 193.009 259.386 182.167 261.625C180.989 261.979 179.811 261.743 178.75 261.271C177.572 260.211 176.04 258.678 176.04 257.382C176.04 256.086 177.926 254.436 179.222 254.083C181.343 253.494 183.7 253.965 187 253.965C185.114 248.073 183.464 242.887 181.579 236.759C167.555 253.965 154.002 251.608 141.157 237.348C138.8 243.595 136.561 248.898 134.91 254.436C134.321 256.558 134.439 259.975 135.736 261.39C137.739 263.628 141.157 266.104 143.75 265.867C149.052 265.161 154.002 262.922 159.423 261.271V261.271ZM125.482 315.364C116.761 309.472 102.737 313.95 88.7133 326.677C80.1103 334.573 78.1068 340.82 82.2318 348.48C88.8308 341.409 99.7911 340.348 104.152 330.213C105.566 327.031 109.808 324.91 112.99 322.789C116.997 320.078 121.122 317.957 125.482 315.364ZM197.37 313.479C197.37 314.068 197.37 314.775 197.37 315.365L241.21 348.48C243.686 344.12 242.625 339.995 239.678 335.87C232.136 325.617 221.058 320.786 210.098 315.953C206.209 314.303 201.613 314.303 197.37 313.479ZM120.297 187.38C129.372 187.38 136.678 179.955 136.678 170.881C136.678 161.807 129.254 154.5 120.179 154.5C111.105 154.5 103.798 161.924 103.798 170.999C103.916 180.191 111.223 187.38 120.297 187.38ZM245.335 154.736C244.51 167.11 243.803 178.895 242.978 191.269C252.759 186.32 258.181 175.949 257.12 166.168C256.295 159.921 253.349 155.914 245.335 154.736ZM78.3426 155.207C70.2113 155.442 67.7361 160.038 66.7935 165.931C65.4971 174.181 71.1536 185.494 78.3426 188.911V155.207ZM172.504 316.072C171.208 311.004 171.326 304.64 168.615 303.108C164.137 300.516 157.891 300.987 152.352 300.162C151.881 300.869 151.527 301.576 151.056 302.283C152.823 304.287 155.888 306.172 156.123 308.293C156.359 310.415 153.884 313.125 152.235 316.189H172.504V316.072V316.072ZM146.577 298.865C141.745 303.343 131.493 300.28 133.378 310.415C134.674 317.721 141.745 313.95 146.577 315.953V298.865V298.865ZM198.902 226.27L215.166 234.166C214.812 228.037 214.459 222.853 214.105 216.37L198.902 226.27V226.27ZM176.629 315.954C181.461 314.068 188.65 317.957 189.121 310.415C189.828 300.987 180.99 306.526 176.629 303.108V315.954ZM109.337 233.577L123.597 226.388C118.176 222.734 113.697 219.67 108.159 216.017C108.63 222.263 108.983 227.331 109.337 233.577V233.577ZM193.835 273.881C189.238 268.343 184.524 265.161 177.571 265.867C180.4 277.771 180.636 278.006 193.835 273.881ZM269.73 169.585C265.841 156.857 265.487 156.622 258.298 158.271C260.184 170.292 260.184 170.292 269.73 169.585ZM64.4362 157.918C55.597 156.503 55.9508 163.928 52.6513 168.289C63.6115 168.995 63.847 168.76 64.4362 157.918ZM229.779 199.636C220.351 211.186 220.351 211.186 224.24 215.192C225.183 212.482 226.126 209.771 227.186 206.825L232.254 210.124C231.311 206.118 230.722 203.289 229.779 199.636ZM130.668 261.39L123.243 269.521C123.597 269.992 123.95 270.346 124.304 270.817L137.149 267.4L130.668 261.39V261.39ZM192.067 311.122L194.424 313.478L200.906 308.529C199.373 307.586 197.134 305.582 196.545 305.936C194.777 306.997 193.481 309.236 192.067 311.122V311.122ZM129.725 304.404L121.711 308.058L129.725 313.832V304.404ZM168.615 243.476L178.397 234.52C167.672 235.698 167.672 235.698 168.615 243.476ZM136.796 198.458H184.878C184.996 214.367 173.8 229.099 161.426 229.452C150.348 229.688 138.563 215.074 136.796 198.458ZM184.407 201.286H140.213C140.096 201.993 139.978 202.818 139.86 203.525C146.341 208.828 154.826 205.882 162.133 205.764C168.851 205.647 177.218 209.536 184.407 201.286V201.286ZM202.791 159.332C209.038 159.567 213.987 164.871 213.751 171.117V171.234C213.516 177.363 208.566 181.723 202.084 181.487C196.074 181.369 191.36 176.538 191.36 170.527C191.36 170.409 191.36 170.291 191.36 170.173C191.832 164.163 196.781 159.45 202.791 159.332V159.332ZM207.741 171.352C205.502 169.467 204.206 167.345 203.145 167.464C201.613 167.699 200.198 169.467 198.785 170.646C199.845 171.942 200.906 174.181 201.966 174.181C203.38 174.417 205.03 172.767 207.741 171.352V171.352ZM121.358 160.275C115.229 160.039 110.044 164.871 109.808 170.999C109.808 171.234 109.808 171.352 109.808 171.588C110.044 177.716 114.994 182.43 121.004 182.548C127.014 182.548 131.964 177.716 131.964 171.706V171.589C131.964 164.988 127.603 160.392 121.358 160.275Z" fill="black"/>
</svg>
